<svg width="240" height="130" viewBox="0 0 240 130" fill="none" xmlns="http://www.w3.org/2000/svg">
<path d="M138.474 37.1615L142.343 25.6615L153.364 30.7708L138.474 37.1615ZM155.302 29.375L144.286 24.2656L141.744 23.0938L140.89 23.4635L139.994 26.1094L136.125 37.599L135.005 40.9115L158.474 30.8438L155.302 29.375Z" fill="#AB9047"/>
<path d="M157.651 28.9323L161.52 17.4323L172.541 22.5417L157.651 28.9323ZM175.229 21.4948L163.463 16.0365L160.921 14.8646L160.062 15.2344L159.166 17.8802L155.302 29.375L154.187 32.6823L175.932 23.349L176.296 21.9844L175.229 21.4948Z" fill="#AB9047"/>
<path d="M119.286 45.3958L123.161 33.8958L134.182 39L119.286 45.3958ZM136.125 37.599L125.109 32.5L122.562 31.3281L121.703 31.6927L120.807 34.3385L116.656 46.6719L116.276 47.8021L117.458 48.4427L139.296 39.0729L136.125 37.599Z" fill="#AB9047"/>
<path d="M176.296 21.9844L175.932 23.349L163.125 71.5209L162.724 73.0052L161.369 72.2656L117.458 48.4427L116.276 47.8021L116.656 46.6719L118.052 46.349L119.937 47.3802L158.151 68.1511L161.39 69.9115L162.343 66.3542L173.536 24.375L174.088 22.3073L175.229 21.4948L176.296 21.9844Z" fill="#AB9047"/>
<path d="M163.463 16.0365L120.807 34.3386L121.703 31.6927L160.921 14.8646L163.463 16.0365Z" fill="#AB9047"/>
<path d="M156.947 30.6511L162.343 66.3542L163.125 71.5209L162.723 73.0052L161.369 72.2656L158.151 68.1511L135.916 39.6771L137.557 38.3906L160.432 67.6823L154.89 30.9531L156.947 30.6511Z" fill="#AB9047"/>
<path d="M71.5465 30.7708L82.5725 25.6615L86.4423 37.1615L71.5465 30.7708ZM66.4475 30.8438L89.9058 40.9115L88.7913 37.599L84.9215 26.1094L84.0256 23.4635L83.1663 23.0938L80.6246 24.2656L69.6142 29.375L66.4475 30.8438Z" fill="#AB9047"/>
<path d="M52.3746 22.5417L63.3954 17.4323L67.2704 28.9323L52.3746 22.5417ZM48.6194 21.9844L48.9788 23.349L70.7288 32.6823L69.6142 29.375L65.7444 17.8802L64.8486 15.2344L63.9892 14.8646L61.4475 16.0365L49.6871 21.4948L48.6194 21.9844Z" fill="#AB9047"/>
<path d="M90.7288 39L101.755 33.8958L105.625 45.3958L90.7288 39ZM85.6194 39.0729L107.458 48.4427L108.64 47.8021L108.26 46.6719L104.104 34.3385L103.213 31.6927L102.354 31.3281L99.8069 32.5L88.7913 37.599L85.6194 39.0729Z" fill="#AB9047"/>
<path d="M48.6194 21.9844L48.9788 23.349L61.7913 71.5209L62.1923 73.0052L63.5465 72.2656L107.458 48.4427L108.64 47.8021L108.26 46.6719L106.859 46.349L104.974 47.3802L66.76 68.1511L63.5256 69.9115L62.5725 66.3542L51.3746 24.375L50.8277 22.3073L49.6871 21.4948L48.6194 21.9844Z" fill="#AB9047"/>
<path d="M61.4475 16.0365L104.104 34.3386L103.213 31.6927L63.9892 14.8646L61.4475 16.0365Z" fill="#AB9047"/>
<path d="M67.9736 30.6511L62.5725 66.3542L61.7913 71.5209L62.1923 73.0052L63.5465 72.2656L66.76 68.1511L88.9996 39.6771L87.3538 38.3906L64.484 67.6823L70.0256 30.9531L67.9736 30.6511Z" fill="#AB9047"/>
<path d="M113.817 20.2188C108.171 21.1667 107.401 21.9219 106.89 27.3229C106.322 21.7344 105.656 21.1667 100.343 20.2188C104.494 20.0313 106.489 20.1042 106.89 15.0104C107.526 20.2031 107.651 19.6146 113.817 20.2188Z" fill="#AB9047"/>
<path d="M131.651 8.86458C127.067 12.2813 126.729 13.3073 128.744 18.3438C125.682 13.6302 124.833 13.4271 119.671 15.0104C123.276 12.9479 125.083 12.1042 123.109 7.39062C126.052 11.7188 125.89 11.1406 131.651 8.86458Z" fill="#AB9047"/>
<path d="M95.3173 12.3542C90.9527 11.4948 90.1819 11.8386 88.3277 15.625C89.4475 11.4011 89.1194 10.8073 85.5152 8.66669C88.5881 9.66669 90.0152 10.2604 91.7079 6.66669C90.7444 10.6198 90.9944 10.224 95.3173 12.3542Z" fill="#AB9047"/>
<path d="M115.182 4.04167C110.796 4.78125 110.203 5.375 109.807 9.56771C109.359 5.22917 108.843 4.78646 104.713 4.05729C107.937 3.90625 109.489 3.95833 109.796 0C110.296 4.03646 110.39 3.57813 115.182 4.04167Z" fill="#AB9047"/>
<path d="M122.937 57.3542C119.302 59.9115 119.015 60.7031 120.479 64.6563C118.197 60.9323 117.541 60.7552 113.5 61.875C116.343 60.349 117.76 59.7292 116.328 56.0261C118.52 59.4531 118.411 59 122.937 57.3542Z" fill="#AB9047"/>
<path d="M113.02 66.776C108.635 67.5208 108.036 68.1042 107.645 72.3021C107.197 67.9635 106.682 67.5208 102.552 66.7917C105.776 66.6406 107.328 66.6927 107.635 62.7344C108.135 66.7708 108.229 66.3125 113.02 66.776Z" fill="#AB9047"/>
<path d="M106.192 59.9011C103.119 59.5677 102.609 59.849 101.552 62.5834C102.072 59.5938 101.812 59.2031 99.1871 57.9323C101.375 58.4427 102.401 58.7709 103.354 56.1823C102.927 58.974 103.078 58.6875 106.192 59.9011Z" fill="#AB9047"/>
<path d="M24.9792 96.2136L25.6042 96.1719C25.7813 96.1719 25.9896 96.2552 26.2292 96.4219C26.4635 96.5886 26.5833 96.7292 26.5833 96.8386C26.526 97.0886 25.2292 99.3073 22.6875 103.484C14.7396 116.542 10.375 123.901 9.58333 125.568C9.98437 125.151 10.4271 124.734 10.9167 124.318C11.401 123.901 11.6719 123.693 11.7292 123.693C11.7969 123.693 11.8646 123.724 11.9375 123.797C12.0052 123.865 12.0417 123.932 12.0417 124.005C12.0417 124.089 11.9844 124.182 11.875 124.297C11.776 124.406 11.4375 124.844 10.8542 125.609C10.2708 126.37 9.83333 126.911 9.54167 127.234C9.25 127.568 8.98958 127.911 8.77083 128.276C8.54687 128.651 8.35417 128.911 8.1875 129.068C8.03125 129.219 7.83854 129.297 7.60417 129.297C6.9375 129.297 6.375 129.005 5.91667 128.422C5.45833 127.849 5.22917 127.365 5.22917 126.964C5.22917 126.198 6.86458 123.198 10.1458 117.964C13.4219 112.714 16.3125 108.313 18.8125 104.755C13.0208 111.578 8.41667 116.057 5 118.193C3.80208 118.943 2.83333 119.318 2.08333 119.318C1.71875 119.318 1.35937 119.214 1 119.005C0.651041 118.797 0.395833 118.536 0.229167 118.214C0.0729173 117.896 0 117.328 0 116.505C0 115.688 0.343749 114.505 1.04167 112.964C1.75 111.422 2.65625 109.776 3.77083 108.026C5.73958 104.901 7.5625 102.229 9.22917 100.005C7.75521 101.339 6.54687 102.005 5.60417 102.005C5.17187 102.005 4.88542 101.943 4.75 101.818C4.60937 101.693 4.42187 101.5 4.1875 101.234C3.94792 100.958 3.83333 100.661 3.83333 100.339C3.83333 100.005 3.88542 99.75 4 99.5677C4.125 99.375 4.23437 99.2292 4.33333 99.1302C4.70833 98.7552 4.94792 98.5365 5.0625 98.4636C5.17187 98.3958 5.30208 98.3594 5.45833 98.3594C5.625 98.3594 5.70833 98.3906 5.70833 98.4427C5.70833 98.5 5.64583 98.5781 5.52083 98.6719C5.40625 98.7708 5.35417 98.849 5.35417 98.9011C5.35417 98.9583 5.41667 98.9844 5.54167 98.9844C5.66667 98.9844 5.81771 98.9583 6 98.9011C6.19271 98.8333 6.4375 98.724 6.72917 98.5677C7.03125 98.4011 7.3125 98.25 7.5625 98.1094C7.8125 97.974 8.17708 97.7552 8.66667 97.4636C9.16667 97.1719 9.54687 96.9583 9.8125 96.8177C10.0729 96.6823 10.4583 96.4219 10.9583 96.0469C11.4583 95.6719 11.8229 95.4219 12.0625 95.2969C12.4792 95.0625 12.8125 94.9948 13.0625 95.0886C13.3229 95.1875 13.526 95.2552 13.6667 95.2969C13.8177 95.3281 13.9479 95.3698 14.0625 95.4219C14.1875 95.4792 14.2969 95.5469 14.3958 95.6302C14.7396 95.8698 14.9167 96.1511 14.9167 96.4844C14.9167 96.8073 14.7552 97.1823 14.4375 97.6094C14.1146 98.0417 13.4063 99.0625 12.3125 100.672C11.2292 102.271 10 104.109 8.625 106.193C7.26042 108.266 6.0625 110.208 5.02083 112.026C3.97917 113.833 3.45833 114.974 3.45833 115.443C3.45833 115.609 3.5 115.693 3.58333 115.693C3.67708 115.693 4.00521 115.479 4.5625 115.047C7.52083 112.771 11.2813 109.203 15.8542 104.339C19.6042 100.339 21.8177 97.8698 22.5 96.9219C22.7083 96.6302 22.9063 96.4375 23.1042 96.3386C23.3125 96.2448 23.625 96.1927 24.0417 96.1927L24.9792 96.2136Z" fill="#BD9700"/>
<path d="M44.0804 97.0261C44.6637 97.0261 45.2262 97.2709 45.7679 97.7552C46.3199 98.2448 46.6012 98.7865 46.6012 99.3802C46.6012 99.9792 46.4449 100.755 46.1429 101.714C45.8512 102.661 45.4345 103.667 44.8929 104.734C44.3616 105.807 43.7158 106.917 42.9554 108.068C42.1897 109.224 41.3564 110.339 40.4554 111.422C39.5491 112.505 38.5647 113.542 37.497 114.526C36.4241 115.5 35.3356 116.349 34.2262 117.068C31.8356 118.651 29.497 119.443 27.2054 119.443C26.4137 119.443 25.7054 119.234 25.0804 118.818C24.4658 118.401 23.9866 117.995 23.6429 117.589C22.8616 116.646 22.4762 115.349 22.4762 113.693C22.4762 112.042 23.0231 110.099 24.122 107.859C25.2158 105.625 26.7106 103.516 28.6012 101.526C30.5022 99.5261 32.6324 97.8959 34.997 96.6302C37.3564 95.3542 39.6012 94.7136 41.7262 94.7136C42.1429 94.7136 42.5387 94.8125 42.9137 95.0052C43.2887 95.1875 43.4762 95.4011 43.4762 95.6511C43.4762 95.9011 43.4137 96.1094 43.2887 96.2761C43.1637 96.4323 43.0439 96.599 42.9345 96.7761C42.8199 96.9584 42.7314 97.0886 42.6637 97.1719C43.0231 97.0781 43.497 97.0261 44.0804 97.0261ZM37.9137 104.672C37.9137 104.88 37.8356 104.984 37.6845 104.984C37.5283 104.984 37.2106 104.724 36.7262 104.193C36.2366 103.667 35.997 103.214 35.997 102.839C35.997 101.995 36.5647 101.036 37.7054 99.9636C38.8408 98.8802 40.1116 98.0573 41.5179 97.4844C39.9762 97.5834 38.1845 98.2448 36.1429 99.4636C34.1116 100.688 32.3304 102.161 30.7887 103.88C29.2574 105.604 28.0231 107.401 27.0804 109.276C26.1481 111.151 25.6845 112.672 25.6845 113.839C25.6845 114.547 25.8408 115.161 26.1637 115.672C26.4814 116.188 27.0231 116.443 27.7887 116.443C28.5491 116.443 29.4658 116.182 30.5387 115.651C31.622 115.125 32.6741 114.432 33.7054 113.568C37.2314 110.583 39.9866 107.271 41.9762 103.63C42.7679 102.13 43.1637 101.099 43.1637 100.526C43.1637 100.292 43.0856 100.172 42.9345 100.172C42.4866 100.172 41.8512 100.464 41.0179 101.047C40.1949 101.62 39.4658 102.25 38.8304 102.943C38.1897 103.641 37.872 104.141 37.872 104.443L37.9137 104.672Z" fill="#BD9700"/>
<path d="M50.7774 102.984C50.7774 103.708 52.0274 104.068 54.5274 104.068C55.1368 104.068 55.5899 104.005 55.8816 103.88C56.6732 103.505 57.6368 103.318 58.7774 103.318C59.9128 103.318 60.4857 103.609 60.4857 104.193C60.4857 104.417 60.3868 104.75 60.1941 105.193C59.9961 105.641 59.8503 105.917 59.7566 106.026C59.6732 106.125 59.3191 106.255 58.6941 106.422C58.0795 106.589 57.6836 106.688 57.5066 106.714C57.3243 106.729 57.1993 106.745 57.1316 106.755C57.0743 106.755 57.0066 106.766 56.9232 106.776C56.8399 106.792 56.6524 106.828 56.3607 106.88C56.0795 106.922 55.8711 106.917 55.7357 106.859C52.0951 108.651 49.5899 110.625 48.2149 112.776C47.6003 113.75 47.2982 114.583 47.2982 115.276C47.2982 116.359 48.0534 116.901 49.5691 116.901C50.7461 116.901 52.2409 116.443 54.0482 115.526C55.8659 114.599 57.4753 113.474 58.8816 112.151C60.2826 110.833 60.9857 109.693 60.9857 108.734C60.9857 108.417 61.2201 108.255 61.6941 108.255C62.7618 108.255 63.2982 108.896 63.2982 110.172C63.2982 110.755 63.0326 111.464 62.5066 112.297C61.9909 113.12 61.267 113.953 60.3399 114.797C59.4232 115.63 58.392 116.417 57.2566 117.151C56.1316 117.875 54.8711 118.464 53.4857 118.922C52.0951 119.38 50.9232 119.609 49.9649 119.609C49.0066 119.609 48.2357 119.516 47.6524 119.339C47.0691 119.156 46.5118 118.891 45.9857 118.526C44.8607 117.75 44.2982 116.563 44.2982 114.964C44.2982 114.12 44.5274 113.25 44.9857 112.359C45.4545 111.474 46.0691 110.667 46.8191 109.943C48.1941 108.568 49.6732 107.432 51.2566 106.526C48.9753 106.016 47.8399 104.849 47.8399 103.026C47.8399 100.984 49.4128 99.1094 52.5691 97.4011C54.3191 96.474 56.2201 95.8073 58.2774 95.4011C59.2357 95.1927 60.0378 95.0886 60.6941 95.0886C62.0118 95.0886 63.0118 95.2031 63.6941 95.4219C64.0951 95.6198 64.4232 95.8959 64.6732 96.2552C64.9232 96.6042 65.0482 96.9115 65.0482 97.1719C65.0482 97.4375 65.0118 97.6719 64.9441 97.8802C64.8868 98.0886 64.7826 98.25 64.6316 98.3594C64.4076 98.5261 64.1576 98.6615 63.8816 98.7552C63.6003 98.8386 63.4441 98.8959 63.4024 98.9219C62.5378 99.2865 61.8034 99.4636 61.1941 99.4636C60.0951 99.4636 59.4909 99.3177 59.3816 99.0261C59.4076 98.75 59.5326 98.4219 59.7566 98.0469C58.7149 98.0886 57.6316 98.2969 56.5066 98.6719C55.3816 99.0469 54.4076 99.4948 53.5899 100.005C52.767 100.521 52.0951 101.057 51.5691 101.609C51.0378 102.167 50.7774 102.625 50.7774 102.984Z" fill="#BD9700"/>
<path d="M70.7522 117.089C68.7105 118.922 66.2626 119.839 63.4188 119.839C61.6949 119.839 60.4709 119.469 59.7313 118.734C59.3147 118.349 59.1063 117.646 59.1063 116.63C59.1063 115.089 60.2834 114.099 62.6272 113.651C63.3615 113.516 64.2417 113.443 65.273 113.443C66.3147 113.443 67.7313 113.63 69.523 114.005C70.4813 112.938 71.6272 111.37 72.9605 109.297C74.2938 107.229 75.3407 105.63 76.1063 104.505C76.8824 103.38 77.7574 102.234 78.7313 101.068C79.7157 99.8906 80.7417 98.8281 81.8147 97.8802C83.9813 95.9375 86.1272 94.9636 88.2522 94.9636C89.1949 94.9636 89.8772 95.2084 90.2938 95.6927C90.7105 96.1667 90.9188 96.7292 90.9188 97.3802C90.9188 98.0365 90.6167 98.7969 90.023 99.6719C89.424 100.547 88.7313 101.318 87.9397 101.984C87.148 102.651 86.3667 103.224 85.6063 103.693C84.8407 104.167 84.2365 104.401 83.7938 104.401C83.3615 104.401 82.9865 104.214 82.6688 103.839C82.3459 103.464 82.1897 103.104 82.1897 102.755C82.1897 102.411 82.2313 102.167 82.3147 102.026C82.4084 101.891 82.5074 101.818 82.6063 101.818C82.7157 101.818 82.7782 101.88 82.7938 102.005C83.1532 101.896 83.7157 101.557 84.4813 100.984C85.2574 100.401 85.9657 99.7969 86.6063 99.1719C87.2417 98.5365 87.5647 98.1406 87.5647 97.9844C87.5647 97.8177 87.4657 97.7344 87.273 97.7344C87.0907 97.7344 86.8355 97.8073 86.5022 97.9427C86.1688 98.0677 85.7209 98.3386 85.1688 98.7552C84.6272 99.1719 84.0334 99.7084 83.398 100.359C81.8563 101.901 80.1324 104.083 78.2313 106.901C77.799 107.542 77.1792 108.474 76.3772 109.693C74.7365 112.182 73.5647 113.88 72.8563 114.797C78.5074 116.286 82.5438 117.026 84.9605 117.026C86.0855 117.026 86.8667 116.88 87.3147 116.589C87.4813 116.495 87.5907 116.443 87.648 116.443C87.7001 116.443 87.7313 116.495 87.7313 116.589C87.7313 116.672 87.6792 116.807 87.5855 116.984C87.4865 117.151 87.2417 117.521 86.8563 118.089C86.4657 118.661 86.174 119 85.9813 119.109C85.4397 119.427 84.523 119.589 83.2313 119.589C81.9397 119.589 80.7001 119.49 79.523 119.297C78.3563 119.12 77.4084 118.938 76.6897 118.755C75.9813 118.578 74.924 118.286 73.523 117.88C72.1167 117.479 71.1949 117.214 70.7522 117.089ZM64.7313 116.089C63.2834 116.089 62.5647 116.255 62.5647 116.589C62.5647 116.729 62.6792 116.849 62.9188 116.943C63.1688 117.042 63.4657 117.089 63.8147 117.089C64.8824 117.089 65.9084 116.807 66.898 116.234C66.049 116.141 65.3251 116.089 64.7313 116.089Z" fill="#BD9700"/>
<path d="M110.485 113.734C110.887 113.542 111.454 113.297 112.194 113.005C112.928 112.714 113.392 112.568 113.59 112.568C113.725 112.568 113.798 112.646 113.798 112.797C113.798 112.953 113.756 113.109 113.673 113.276C113.6 113.443 113.527 113.589 113.444 113.714C113.36 113.828 113.256 113.974 113.131 114.151L112.881 114.484C112.35 115.234 111.59 115.854 110.59 116.339C110.256 116.521 109.762 116.755 109.11 117.047C108.47 117.328 108.027 117.536 107.777 117.672L106.902 118.984C105.038 121.734 103.485 123.797 102.235 125.172C100.985 126.557 99.824 127.557 98.7563 128.172C97.699 128.781 96.4646 129.089 95.048 129.089C94.3657 129.089 93.8501 128.797 93.5063 128.214C93.1573 127.63 92.9855 126.969 92.9855 126.234C92.9855 125.495 93.2146 124.734 93.673 123.943C94.1313 123.161 94.7615 122.422 95.5688 121.714C96.3709 121.005 97.2146 120.328 98.0896 119.693C98.9646 119.068 99.9334 118.458 101.006 117.859C102.741 116.932 104.423 116.089 106.048 115.339C110.058 109.438 114.131 103.714 118.256 98.1719C118.35 98.0886 118.402 98.0261 118.402 97.9844C118.402 97.9323 118.235 97.9011 117.902 97.9011C117.569 97.9011 116.829 98.0156 115.694 98.2344C113.194 98.75 110.704 99.6719 108.235 101.005C105.762 102.328 103.642 103.839 101.881 105.547C100.131 107.255 99.2563 108.646 99.2563 109.714C99.2563 110.255 99.4855 110.703 99.9438 111.047C100.402 111.396 100.892 111.568 101.423 111.568C101.965 111.568 102.517 111.438 103.09 111.172C103.657 110.896 104.131 110.625 104.506 110.359C104.881 110.083 105.095 109.943 105.152 109.943C105.204 109.943 105.235 110.021 105.235 110.172C105.235 110.979 105.017 111.672 104.59 112.255C104.173 112.839 103.59 113.276 102.84 113.568C102.09 113.849 101.366 113.984 100.673 113.984C99.9907 113.984 99.2876 113.849 98.5688 113.568C97.8448 113.276 97.2355 112.828 96.7355 112.214C96.2355 111.604 95.9855 110.917 95.9855 110.151C95.9855 109.818 96.0584 109.432 96.2146 108.984C97.298 105.432 100.86 102.005 106.902 98.7136C108.97 97.5886 111.282 96.6875 113.84 96.0052C116.392 95.3125 118.819 94.9636 121.11 94.9636C121.527 94.9636 121.887 95.099 122.194 95.3594C122.496 95.625 122.652 95.9115 122.652 96.2136C122.652 96.5052 122.631 96.7136 122.59 96.8386C122.548 96.9531 122.345 97.2656 121.985 97.7761C121.637 98.2761 121.282 98.7656 120.923 99.2344C119.923 100.542 119.069 101.667 118.36 102.609C117.652 103.542 115.027 107.25 110.485 113.734ZM103.485 119.255C98.0532 122.615 95.3396 124.859 95.3396 125.984C95.3396 126.234 95.5271 126.359 95.9021 126.359C96.2876 126.359 96.7876 126.161 97.4021 125.776C98.0271 125.385 98.6105 124.932 99.1521 124.422C99.6938 123.906 100.277 123.281 100.902 122.547C101.788 121.49 102.652 120.391 103.485 119.255Z" fill="#BD9700"/>
<path d="M139.106 97.0261C139.69 97.0261 140.252 97.2709 140.794 97.7552C141.346 98.2448 141.627 98.7865 141.627 99.3802C141.627 99.9792 141.471 100.755 141.169 101.714C140.877 102.661 140.461 103.667 139.919 104.734C139.388 105.807 138.742 106.917 137.981 108.068C137.216 109.224 136.382 110.339 135.481 111.422C134.575 112.505 133.591 113.542 132.523 114.526C131.45 115.5 130.362 116.349 129.252 117.068C126.862 118.651 124.523 119.443 122.231 119.443C121.44 119.443 120.731 119.234 120.106 118.818C119.492 118.401 119.013 117.995 118.669 117.589C117.888 116.646 117.502 115.349 117.502 113.693C117.502 112.042 118.049 110.099 119.148 107.859C120.242 105.625 121.737 103.516 123.627 101.526C125.528 99.5261 127.658 97.8959 130.023 96.6302C132.382 95.3542 134.627 94.7136 136.752 94.7136C137.169 94.7136 137.565 94.8125 137.94 95.0052C138.315 95.1875 138.502 95.4011 138.502 95.6511C138.502 95.9011 138.44 96.1094 138.315 96.2761C138.19 96.4323 138.07 96.599 137.961 96.7761C137.846 96.9584 137.757 97.0886 137.69 97.1719C138.049 97.0781 138.523 97.0261 139.106 97.0261ZM132.94 104.672C132.94 104.88 132.862 104.984 132.711 104.984C132.554 104.984 132.237 104.724 131.752 104.193C131.263 103.667 131.023 103.214 131.023 102.839C131.023 101.995 131.591 101.036 132.731 99.9636C133.867 98.8802 135.138 98.0573 136.544 97.4844C135.002 97.5834 133.211 98.2448 131.169 99.4636C129.138 100.688 127.356 102.161 125.815 103.88C124.283 105.604 123.049 107.401 122.106 109.276C121.174 111.151 120.711 112.672 120.711 113.839C120.711 114.547 120.867 115.161 121.19 115.672C121.507 116.188 122.049 116.443 122.815 116.443C123.575 116.443 124.492 116.182 125.565 115.651C126.648 115.125 127.7 114.432 128.731 113.568C132.257 110.583 135.013 107.271 137.002 103.63C137.794 102.13 138.19 101.099 138.19 100.526C138.19 100.292 138.112 100.172 137.961 100.172C137.513 100.172 136.877 100.464 136.044 101.047C135.221 101.62 134.492 102.25 133.856 102.943C133.216 103.641 132.898 104.141 132.898 104.443L132.94 104.672Z" fill="#BD9700"/>
<path d="M164.074 96.2136L164.699 96.1719C164.876 96.1719 165.085 96.2552 165.324 96.4219C165.559 96.5886 165.678 96.7292 165.678 96.8386C165.621 97.0886 164.324 99.3073 161.783 103.484C153.835 116.542 149.47 123.901 148.678 125.568C149.079 125.151 149.522 124.734 150.012 124.318C150.496 123.901 150.767 123.693 150.824 123.693C150.892 123.693 150.96 123.724 151.033 123.797C151.1 123.865 151.137 123.932 151.137 124.005C151.137 124.089 151.079 124.182 150.97 124.297C150.871 124.406 150.533 124.844 149.949 125.609C149.366 126.37 148.928 126.911 148.637 127.234C148.345 127.568 148.085 127.911 147.866 128.276C147.642 128.651 147.449 128.911 147.283 129.068C147.126 129.219 146.934 129.297 146.699 129.297C146.033 129.297 145.47 129.005 145.012 128.422C144.553 127.849 144.324 127.365 144.324 126.964C144.324 126.198 145.96 123.198 149.241 117.964C152.517 112.714 155.408 108.313 157.908 104.755C152.116 111.578 147.512 116.057 144.095 118.193C142.897 118.943 141.928 119.318 141.178 119.318C140.814 119.318 140.454 119.214 140.095 119.005C139.746 118.797 139.491 118.536 139.324 118.214C139.168 117.896 139.095 117.328 139.095 116.505C139.095 115.688 139.439 114.505 140.137 112.964C140.845 111.422 141.751 109.776 142.866 108.026C144.835 104.901 146.658 102.229 148.324 100.005C146.85 101.339 145.642 102.005 144.699 102.005C144.267 102.005 143.98 101.943 143.845 101.818C143.704 101.693 143.517 101.5 143.283 101.234C143.043 100.958 142.928 100.661 142.928 100.339C142.928 100.005 142.98 99.75 143.095 99.5677C143.22 99.375 143.329 99.2292 143.428 99.1302C143.803 98.7552 144.043 98.5365 144.158 98.4636C144.267 98.3958 144.397 98.3594 144.553 98.3594C144.72 98.3594 144.803 98.3906 144.803 98.4427C144.803 98.5 144.741 98.5781 144.616 98.6719C144.501 98.7708 144.449 98.849 144.449 98.9011C144.449 98.9583 144.512 98.9844 144.637 98.9844C144.762 98.9844 144.913 98.9583 145.095 98.9011C145.288 98.8333 145.533 98.724 145.824 98.5677C146.126 98.4011 146.408 98.25 146.658 98.1094C146.908 97.974 147.272 97.7552 147.762 97.4636C148.262 97.1719 148.642 96.9583 148.908 96.8177C149.168 96.6823 149.553 96.4219 150.053 96.0469C150.553 95.6719 150.918 95.4219 151.158 95.2969C151.574 95.0625 151.908 94.9948 152.158 95.0886C152.418 95.1875 152.621 95.2552 152.762 95.2969C152.913 95.3281 153.043 95.3698 153.158 95.4219C153.283 95.4792 153.392 95.5469 153.491 95.6302C153.835 95.8698 154.012 96.1511 154.012 96.4844C154.012 96.8073 153.85 97.1823 153.533 97.6094C153.21 98.0417 152.501 99.0625 151.408 100.672C150.324 102.271 149.095 104.109 147.72 106.193C146.355 108.266 145.158 110.208 144.116 112.026C143.074 113.833 142.553 114.974 142.553 115.443C142.553 115.609 142.595 115.693 142.678 115.693C142.772 115.693 143.1 115.479 143.658 115.047C146.616 112.771 150.376 109.203 154.949 104.339C158.699 100.339 160.913 97.8698 161.595 96.9219C161.803 96.6302 162.001 96.4375 162.199 96.3386C162.408 96.2448 162.72 96.1927 163.137 96.1927L164.074 96.2136Z" fill="#BD9700"/>
<path d="M168.3 102.984C168.3 103.708 169.55 104.068 172.05 104.068C172.66 104.068 173.113 104.005 173.405 103.88C174.196 103.505 175.16 103.318 176.3 103.318C177.436 103.318 178.009 103.609 178.009 104.193C178.009 104.417 177.91 104.75 177.717 105.193C177.519 105.641 177.373 105.917 177.28 106.026C177.196 106.125 176.842 106.255 176.217 106.422C175.602 106.589 175.207 106.688 175.03 106.714C174.847 106.729 174.722 106.745 174.655 106.755C174.597 106.755 174.53 106.766 174.446 106.776C174.363 106.792 174.175 106.828 173.884 106.88C173.602 106.922 173.394 106.917 173.259 106.859C169.618 108.651 167.113 110.625 165.738 112.776C165.123 113.75 164.821 114.583 164.821 115.276C164.821 116.359 165.576 116.901 167.092 116.901C168.269 116.901 169.764 116.443 171.571 115.526C173.389 114.599 174.998 113.474 176.405 112.151C177.806 110.833 178.509 109.693 178.509 108.734C178.509 108.417 178.743 108.255 179.217 108.255C180.285 108.255 180.821 108.896 180.821 110.172C180.821 110.755 180.556 111.464 180.03 112.297C179.514 113.12 178.79 113.953 177.863 114.797C176.946 115.63 175.915 116.417 174.78 117.151C173.655 117.875 172.394 118.464 171.009 118.922C169.618 119.38 168.446 119.609 167.488 119.609C166.53 119.609 165.759 119.516 165.175 119.339C164.592 119.156 164.035 118.891 163.509 118.526C162.384 117.75 161.821 116.563 161.821 114.964C161.821 114.12 162.05 113.25 162.509 112.359C162.977 111.474 163.592 110.667 164.342 109.943C165.717 108.568 167.196 107.432 168.78 106.526C166.498 106.016 165.363 104.849 165.363 103.026C165.363 100.984 166.936 99.1094 170.092 97.4011C171.842 96.474 173.743 95.8073 175.8 95.4011C176.759 95.1927 177.561 95.0886 178.217 95.0886C179.535 95.0886 180.535 95.2031 181.217 95.4219C181.618 95.6198 181.946 95.8959 182.196 96.2552C182.446 96.6042 182.571 96.9115 182.571 97.1719C182.571 97.4375 182.535 97.6719 182.467 97.8802C182.41 98.0886 182.306 98.25 182.155 98.3594C181.931 98.5261 181.681 98.6615 181.405 98.7552C181.123 98.8386 180.967 98.8959 180.925 98.9219C180.061 99.2865 179.326 99.4636 178.717 99.4636C177.618 99.4636 177.014 99.3177 176.905 99.0261C176.931 98.75 177.056 98.4219 177.28 98.0469C176.238 98.0886 175.155 98.2969 174.03 98.6719C172.905 99.0469 171.931 99.4948 171.113 100.005C170.29 100.521 169.618 101.057 169.092 101.609C168.561 102.167 168.3 102.625 168.3 102.984Z" fill="#BD9700"/>
<path d="M189.692 102.193C189.858 102.193 189.942 102.286 189.942 102.464C189.942 102.536 189.911 102.599 189.858 102.651C188.942 103.568 187.869 104.026 186.65 104.026C186.369 104.026 186.051 103.87 185.692 103.547C185.343 103.229 185.171 102.766 185.171 102.151C185.171 101.526 185.546 100.839 186.296 100.089C187.046 99.3281 188.088 98.6094 189.421 97.9427C190.765 97.2656 192.442 96.6615 194.442 96.1302C196.442 95.6042 198.239 95.3386 199.838 95.3386C201.431 95.3386 202.744 95.474 203.775 95.7344C204.801 95.9844 205.598 96.3073 206.171 96.6927C206.754 97.0677 207.233 97.4948 207.608 97.9636C208.233 98.7552 208.546 99.5625 208.546 100.38C208.546 101.203 208.28 102.047 207.754 102.922C207.223 103.786 206.536 104.557 205.692 105.234C204.858 105.917 203.89 106.547 202.796 107.13C200.754 108.203 198.572 108.995 196.254 109.505C196.655 109.911 197.494 110.932 198.775 112.568C200.051 114.208 201.218 115.578 202.275 116.672C203.343 117.771 204.171 118.318 204.754 118.318L205.317 118.13C205.426 118.13 205.483 118.182 205.483 118.276C205.483 118.359 205.28 118.63 204.879 119.089C204.473 119.531 204.129 119.865 203.838 120.089C203.546 120.323 203.14 120.443 202.629 120.443C202.114 120.443 201.53 120.193 200.879 119.693C200.223 119.193 199.51 118.495 198.733 117.589C197.968 116.688 197.28 115.839 196.671 115.047C196.056 114.245 195.348 113.297 194.546 112.214C193.754 111.13 193.213 110.396 192.921 110.005C192.806 110.188 192.525 110.63 192.067 111.339C191.619 112.036 191.296 112.547 191.088 112.88C190.879 113.203 190.572 113.682 190.171 114.318C189.78 114.958 189.473 115.464 189.254 115.839C188.64 116.87 188.218 117.641 187.983 118.151C187.744 118.651 187.358 118.901 186.817 118.901L186.254 118.88L185.754 118.901C185.072 118.901 184.733 118.62 184.733 118.047C184.733 117.62 184.911 117.005 185.275 116.214C185.65 115.411 187.608 112.432 191.15 107.276C194.692 102.109 196.64 99.3542 197.004 99.0052C197.379 98.6615 197.65 98.4636 197.817 98.4219C197.952 98.3281 198.046 98.2761 198.088 98.2761L198.379 98.3177L198.671 98.2761C198.765 98.2761 198.848 98.3177 198.921 98.4011C199.004 98.4844 199.056 98.5365 199.088 98.5469C199.556 98.8959 199.796 99.1875 199.796 99.4219C199.796 99.6459 199.733 99.8698 199.608 100.089C199.494 100.297 199.181 100.776 198.671 101.526C198.155 102.276 197.473 103.25 196.629 104.443C195.78 105.641 195.171 106.505 194.796 107.047C195.697 107.005 196.78 106.734 198.046 106.234C199.322 105.724 200.51 105.109 201.608 104.401C202.718 103.682 203.671 102.911 204.463 102.089C205.254 101.255 205.65 100.526 205.65 99.9011C205.65 99.5677 205.473 99.2709 205.129 99.0052C204.78 98.7448 204.348 98.5261 203.838 98.3594C202.806 98.0573 201.64 97.9011 200.338 97.9011C199.03 97.9011 197.379 98.1875 195.379 98.7552C193.39 99.3125 191.942 99.849 191.025 100.359C190.119 100.875 189.463 101.313 189.046 101.672C188.64 102.021 188.442 102.271 188.442 102.422C188.442 102.495 188.551 102.526 188.775 102.526C189.01 102.526 189.213 102.474 189.379 102.359C189.556 102.25 189.661 102.193 189.692 102.193Z" fill="#BD9700"/>
<path d="M220.793 95.1927L221.564 95.1719C221.855 95.1719 222.001 95.2761 222.001 95.4844C222.001 95.5573 221.986 95.6094 221.96 95.6511C216.694 103.391 211.777 110.974 207.21 118.401C206.96 118.807 206.741 119.036 206.564 119.089C206.548 119.089 206.491 119.109 206.397 119.151C205.84 119.359 205.449 119.464 205.23 119.464C205.022 119.464 204.902 119.469 204.876 119.484C204.777 119.594 204.658 119.651 204.522 119.651C204.381 119.651 204.293 119.641 204.251 119.63C204.21 119.63 204.085 119.589 203.876 119.505C203.668 119.422 203.564 119.359 203.564 119.318C203.564 118.776 203.585 118.453 203.626 118.339C203.85 117.563 205.111 115.359 207.418 111.734C209.736 108.099 212.09 104.557 214.48 101.109C216.881 97.6511 218.34 95.7292 218.855 95.3386C219.006 95.2136 219.21 95.1511 219.46 95.1511L220.793 95.1927Z" fill="#BD9700"/>
<path d="M236.482 95.9636C236.816 95.2136 237.055 94.8386 237.212 94.8386H237.295C237.462 94.8386 237.795 95.0156 238.295 95.3594C238.795 95.7084 239.045 96.0417 239.045 96.3594C239.045 96.7917 237.633 100.12 234.816 106.339C231.993 112.563 230.378 116.047 229.962 116.797C229.555 117.547 229.279 118.057 229.128 118.318C228.972 118.568 228.764 118.849 228.503 119.151C228.029 119.734 227.441 120.026 226.732 120.026C226.441 120.026 226.18 120.057 225.962 120.13C225.753 120.198 225.618 120.234 225.566 120.234C225.217 120.234 225.045 120.151 225.045 119.984C225.045 119.953 225.092 119.823 225.191 119.589C225.285 119.349 226.545 116.682 228.962 111.568C226.378 111.474 224.097 111.396 222.128 111.339C220.253 113.703 218.55 116.182 217.024 118.776C216.826 119.141 216.649 119.385 216.482 119.526C216.316 119.677 216.087 119.755 215.795 119.755C215.514 119.755 215.212 119.609 214.878 119.318C214.555 119.026 214.399 118.693 214.399 118.318C214.399 117.208 215.816 114.849 218.649 111.234C217.316 111.234 216.467 111.271 216.107 111.339C215.758 111.411 215.535 111.443 215.441 111.443C215.133 111.443 214.982 111.193 214.982 110.693C214.982 110.193 215.274 109.755 215.857 109.38C216.451 108.995 217.243 108.797 218.232 108.797C218.316 108.797 218.451 108.792 218.649 108.776C219.326 108.75 220.029 108.724 220.753 108.693C223.154 105.875 225.66 103.266 228.274 100.859C230.899 98.4427 233.17 96.75 235.087 95.7761C235.389 95.625 235.633 95.5573 235.816 95.5677C236.008 95.5677 236.232 95.7031 236.482 95.9636ZM235.316 98.2969C231.3 101.354 227.628 104.818 224.295 108.693C226.253 108.734 228.222 108.818 230.212 108.943C232.222 104.724 233.925 101.172 235.316 98.2969Z" fill="#BD9700"/>
</svg>
